<svg width="108" height="106" viewBox="0 0 108 106" fill="none" xmlns="http://www.w3.org/2000/svg">
<path fill-rule="evenodd" clip-rule="evenodd" d="M52.2325 1C53.0023 -0.333333 54.9268 -0.333333 55.6966 1L107.658 91C108.428 92.3333 107.466 94 105.926 94H77.4952L77.4947 94.0006L77.494 94H68.4645L72.3766 89.953L46.4645 69.4612V83.3802C46.4645 83.7095 46.3024 84.0177 46.031 84.2043L42.531 86.6105C42.1898 86.8451 41.7392 86.8451 41.398 86.6105L37.898 84.2043C37.6266 84.0177 37.4645 83.7095 37.4645 83.3802V54H37.4719C37.467 53.8339 37.4645 53.6673 37.4645 53.5C37.4645 44.3873 44.8518 37 53.9645 37C63.0772 37 70.4645 44.3873 70.4645 53.5C70.4645 60.428 66.1947 66.3588 60.143 68.8043L79.3581 84H88.6055C90.1451 84 91.1074 82.3333 90.3376 81L76.5855 57.1807C76.8344 55.825 76.9645 54.4277 76.9645 53C76.9645 42.9937 70.5746 34.4799 61.6527 31.3164L55.6965 21C54.9267 19.6667 53.0022 19.6667 52.2324 21L46.2763 31.3164C37.3544 34.4799 30.9645 42.9937 30.9645 53C30.9645 54.4277 31.0946 55.825 31.3435 57.1807L17.5914 81C16.8216 82.3333 17.7839 84 19.3235 84H29.7978L39.3171 93.8475C39.4113 93.945 39.541 94 39.6766 94H2.00298C0.463383 94 -0.498867 92.3333 0.270933 91L52.2325 1ZM49.4645 87.5352C49.4645 87.2008 49.6316 86.8886 49.9098 86.7031L53.4098 84.3698C53.7457 84.1459 54.1833 84.1459 54.5192 84.3698L58.0192 86.7031C58.2974 86.8886 58.4645 87.2008 58.4645 87.5352V94.75H63.6148C64.0556 94.75 64.2808 95.279 63.9751 95.5967L54.3248 105.626C54.1281 105.83 53.8009 105.83 53.6042 105.626L43.9539 95.5967C43.6483 95.279 43.8734 94.75 44.3142 94.75H49.4645V87.5352ZM53.9645 61C58.1066 61 61.4645 57.6421 61.4645 53.5C61.4645 49.3579 58.1066 46 53.9645 46C49.8224 46 46.4645 49.3579 46.4645 53.5C46.4645 57.6421 49.8224 61 53.9645 61Z" fill="white"/>
</svg>
